PathFileType	4	(X/Y/Z)	/Users/niels/Desktop/University/Third Semester/Perception and Action/Exam/Gymnastics Motion Tracking/Code for Gym Tracking/Analyzed Data/Webcam_Backflip/temp_id5_4_baseline_Sports2D/temp_id5_4_baseline_Sports2D_px_person00.trc
DataRate	CameraRate	NumFrames	NumMarkers	Units	OrigDataRate	OrigDataStartFrame	OrigNumFrames
29.810126582278482	29.810126582278482	11	22	m	29.810126582278482	19	158
Frame#	Time	Hip			RHip			RKnee			RAnkle			RBigToe			RSmallToe			RHeel			LHip			LKnee			LAnkle			LBigToe			LSmallToe			LHeel			Neck			Head			Nose			RShoulder			RElbow			RWrist			LShoulder			LElbow			LWrist		
		X1	Y1	Z1	X2	Y2	Z2	X3	Y3	Z3	X4	Y4	Z4	X5	Y5	Z5	X6	Y6	Z6	X7	Y7	Z7	X8	Y8	Z8	X9	Y9	Z9	X10	Y10	Z10	X11	Y11	Z11	X12	Y12	Z12	X13	Y13	Z13	X14	Y14	Z14	X15	Y15	Z15	X16	Y16	Z16	X17	Y17	Z17	X18	Y18	Z18	X19	Y19	Z19	X20	Y20	Z20	X21	Y21	Z21	X22	Y22	Z22
19	0.6373673036093418	0.9762624203438943	-0.5753993079878922	0.0	0.9734136294755636	-0.57373251567245	0.0	1.0078774441326017	-0.6750333528745214	0.0	0.9718728313441153	-0.7773815984712049	0.0	1.0125706821445757	-0.794433191226649	0.0	1.0018255383164691	-0.799202181873729	0.0	0.960898822314364	-0.7922420733501417	0.0	0.9782363579547333	-0.5727705772419062	0.0	1.0024699557086558	-0.6733723582232168	0.0	0.9741078981639542	-0.7667929812159909	0.0	1.0099463450085147	-0.7881328707482989	0.0	1.0035722176722308	-0.7844259253074888	0.0	0.9582781710359319	-0.782309474282653	0.0	1.0100487862650365	-0.4348153466617038	0.0	1.0511198635207408	-0.3749607181317354	0.0	1.053713614396004	-0.4103096789341194	0.0	1.0041017019992822	-0.4431751502816565	0.0	0.9530967236845732	-0.4777736713337848	0.0	0.9053119629933857	-0.5050930432114782	0.0	0.9991541214503326	-0.4444915291708994	0.0	0.9568042621966745	-0.48308789635892024	0.0	0.9164510798663088	-0.5079685360943255	0.0
20	0.6709129511677282	0.9754554465376725	-0.5664733055545845	0.0	0.9728983569602588	-0.5651457754120599	0.0	1.0039810105201106	-0.6685723208291409	0.0	0.9719353705634521	-0.7716271615011181	0.0	1.0119617441320576	-0.7910552906952664	0.0	1.0014747653597378	-0.7951957607304936	0.0	0.9605013618555357	-0.7868385634315016	0.0	0.9772997852265934	-0.5640122921522613	0.0	0.9982037413977706	-0.6668314279953987	0.0	0.9738690921832764	-0.7618124510317635	0.0	1.0078987283044947	-0.7830262136965995	0.0	1.0017436873809245	-0.7798438718161292	0.0	0.9577040281005602	-0.7775429714677226	0.0	1.010051508599436	-0.42722180637125473	0.0	1.0529933580288662	-0.36640089132041237	0.0	1.054481856148503	-0.4024519640531878	0.0	1.0050812618342921	-0.4338525332016151	0.0	0.9521109323260212	-0.4623442089461765	0.0	0.9014775829615511	-0.481813348960459	0.0	0.9997094916220559	-0.43619744476343975	0.0	0.9572917908338934	-0.4663415337267795	0.0	0.9138159820431737	-0.4859835958999575	0.0
21	0.7044585987261146	0.974581183132643	-0.5592080955604636	0.0	0.9720114510377179	-0.5580314289583035	0.0	1.0001875061266758	-0.6632260261310796	0.0	0.9717878203177212	-0.7670348972797743	0.0	1.0115048403613092	-0.7887992955647859	0.0	1.0009992174835118	-0.7923925249683085	0.0	0.9600359364190378	-0.7825592020615036	0.0	0.9762561038998895	-0.5567832922312603	0.0	0.9946627014982615	-0.6615109651895039	0.0	0.9737349091186827	-0.7581765926252759	0.0	1.0064437680384835	-0.7794657761361861	0.0	1.0008693186560669	-0.7766979770885022	0.0	0.9572702688075372	-0.7740137110199691	0.0	1.0101603360355256	-0.4208211066849419	0.0	1.0540529806720635	-0.3594212025974318	0.0	1.0550676361306748	-0.3957736685437532	0.0	1.0058737824186148	-0.4260681855595699	0.0	0.9514227034906568	-0.4494200540701967	0.0	0.8989552337140385	-0.4617579624593111	0.0	1.0003647569322678	-0.429215590980462	0.0	0.9584590047864404	-0.45146030741066695	0.0	0.9129266097792794	-0.46671442440887634	0.0
22	0.738004246284501	0.973472995885552	-0.5538315636397767	0.0	0.9707044070016166	-0.5526495011537397	0.0	0.9970016799687101	-0.6590724063805995	0.0	0.971539829214931	-0.7635673086556494	0.0	1.0112180124026462	-0.7872443160037544	0.0	1.0005314073010245	-0.7904592746442047	0.0	0.9596779976263989	-0.7793167910449986	0.0	0.9748701568891087	-0.5513883930938331	0.0	0.992121898955281	-0.657466466795739	0.0	0.9737051891921301	-0.7556407918931115	0.0	1.005608050503106	-0.7771212599061702	0.0	1.0007859305857723	-0.7746799016798538	0.0	0.9570243088520191	-0.7715372333120242	0.0	1.0103666185634468	-0.41598677501909115	0.0	1.0545123492338295	-0.3543392156589624	0.0	1.055492384112817	-0.39068955231657265	0.0	1.006574619174649	-0.42024814553780787	0.0	0.9510323765314783	-0.43947620207530574	0.0	0.8974042656148478	-0.4460702490472762	0.0	1.0009966448232175	-0.42388118213411513	0.0	0.9595332335643547	-0.43947195180922777	0.0	0.9128751407119406	-0.4514226735141921	0.0
23	0.7715498938428874	0.9719825710482513	-0.5503742743778242	0.0	0.9689765333438191	-0.5491106225567954	0.0	0.9949908941697797	-0.6560820620108289	0.0	0.9713144331740853	-0.7610125394240242	0.0	1.0110507142956606	-0.7859327891261051	0.0	1.0001668628663507	-0.7889567192268516	0.0	0.9595078605092622	-0.7768636154806058	0.0	0.9728747235093137	-0.5479433181631276	0.0	0.9907803983643108	-0.6546282815771477	0.0	0.9737620744390599	-0.7537997115945869	0.0	1.0052766095695862	-0.7754847515109461	0.0	1.0011712898730498	-0.773297884498173	0.0	0.9569912462117297	-0.7697388616537654	0.0	1.0105873208505345	-0.41306084669567344	0.0	1.054666239773954	-0.3513622858834986	0.0	1.0557538322582636	-0.38754607584440004	0.0	1.0072392119680018	-0.4167498764931218	0.0	0.9509182306243837	-0.43298390842726214	0.0	0.8964845392232381	-0.43596326494258036	0.0	1.001453858442527	-0.4204995479700664	0.0	0.9598547054940255	-0.4313111300391591	0.0	0.912770014254391	-0.4413997798830527	0.0
24	0.8050955414012739	0.9700274950421693	-0.5488476173061333	0.0	0.9668304889210453	-0.5474838939502703	0.0	0.9946737471830743	-0.6541053779792974	0.0	0.9711951616495764	-0.7590898918259626	0.0	1.010976919631157	-0.7844941387542208	0.0	0.9999653451160364	-0.7874706969515463	0.0	0.9595411341481993	-0.774900120691499	0.0	0.9700951814051448	-0.5464821916889878	0.0	0.9908581970842425	-0.6528173888970391	0.0	0.9738887109264327	-0.752221534598495	0.0	1.0053336506972508	-0.7740919390201371	0.0	1.001766720614044	-0.77205047743874	0.0	0.9571696423598338	-0.7681990901315134	0.0	1.0107661235788006	-0.4123213347319865	0.0	1.0546839598862052	-0.35068721992356494	0.0	1.0558567301176003	-0.38662456039093707	0.0	1.0078633998391529	-0.4158524902659166	0.0	0.9509598998887224	-0.4304781181643663	0.0	0.8959795646601726	-0.43274782225608693	0.0	1.001668587360904	-0.4193546483829814	0.0	0.9591113848772294	-0.427800075024735	0.0	0.91215302779982	-0.437926045076633	0.0
25	0.8386411889596603	0.9676209622571995	-0.5493604802517253	0.0	0.9642865742049395	-0.5479061079058822	0.0	0.9963889333917323	-0.6529484715550972	0.0	0.9712223318779268	-0.7575500365665362	0.0	1.0110249501048236	-0.7827435537835243	0.0	0.9999514763433728	-0.7857354286662137	0.0	0.9597738572149174	-0.7731724105819181	0.0	0.9665776421210117	-0.5470679439783992	0.0	0.9925745348285233	-0.6518113938891371	0.0	0.9740895201354032	-0.7506347388137126	0.0	1.005772476935617	-0.772725949851599	0.0	1.0024951694563884	-0.7706499906647913	0.0	0.9575524016829609	-0.7666452836159665	0.0	1.0108836530753362	-0.4139896107536117	0.0	1.0545233955277384	-0.35251790878706485	0.0	1.0557862224803016	-0.38813267480764513	0.0	1.0084188462757084	-0.4177744092284718	0.0	0.9510904868783134	-0.43254560856303	0.0	0.8960694875584325	-0.43767053530145444	0.0	1.0016332942704729	-0.4207082000960406	0.0	0.9573246527643353	-0.4295881134909584	0.0	0.9112879339586272	-0.4421157058207971	0.0
26	0.8721868365180467	0.964846087137089	-0.5521381650045023	0.0	0.9614219055810523	-0.5506158527888506	0.0	1.0001255863711631	-0.6525463833411744	0.0	0.9714052751381791	-0.7563116130054736	0.0	1.0112351166281797	-0.7807908642839806	0.0	1.0001272137189245	-0.783773560890874	0.0	0.9601873673464969	-0.7716164545200758	0.0	0.9626587498335271	-0.5498670172111333	0.0	0.9960300639028662	-0.6515066653984373	0.0	0.9743778632577436	-0.7491169404252019	0.0	1.006712635155285	-0.7715368743855031	0.0	1.0034367313129264	-0.7692177808929059	0.0	0.9581225501859317	-0.7651338457975745	0.0	1.010922230057428	-0.41821138359935794	0.0	1.053926376097303	-0.3570206380763635	0.0	1.055469944531098	-0.3921710081018047	0.0	1.0088510969201485	-0.42269861513745804	0.0	0.9514802479533874	-0.4397688001023612	0.0	0.8975731707004925	-0.45157627996353883	0.0	1.001341856522707	-0.4247852380954561	0.0	0.9547815924387855	-0.43709273916141783	0.0	0.9112391383429632	-0.45465217140925	0.0
27	0.9057324840764331	0.9618042142277791	-0.5574897605725113	0.0	0.958394103241538	-0.5559371548078748	0.0	1.0054156606329636	-0.6531457826815928	0.0	0.9717176504754506	-0.755652641956917	0.0	1.0115914530593286	-0.7791644525147189	0.0	1.0004612558165131	-0.7820691741063278	0.0	0.9607214568150093	-0.770549849001195	0.0	0.9588839977247592	-0.5551907456345709	0.0	1.0010621987654156	-0.6521263063232796	0.0	0.9747374694608687	-0.748225365138284	0.0	1.0082767005402782	-0.7710726613321125	0.0	1.0046932453181014	-0.76837356694389	0.0	0.9587860868971095	-0.7641607577085399	0.0	1.0108076358929317	-0.42502898909047543	0.0	1.0524654087686058	-0.3642500957520921	0.0	1.0547279929830948	-0.39873256919523226	0.0	1.0089973397579914	-0.43074027225208694	0.0	0.9525660215554526	-0.4525987462929767	0.0	0.9020117829717557	-0.4744050176013886	0.0	1.000782585659769	-0.4317564772957645	0.0	0.9522272839597467	-0.45042419033135844	0.0	0.9139089447085406	-0.47542458588710407	0.0
28	0.9392781316348195	0.9586249361025885	-0.5657266469240776	0.0	0.9554555628489843	-0.564212168706857	0.0	1.0113755687240849	-0.6554270701659533	0.0	0.9720968069655155	-0.7564045318005135	0.0	1.012009085385351	-0.7788932318384252	0.0	1.0008802637215637	-0.7816795876819209	0.0	0.9612642333536565	-0.7708190032402366	0.0	0.9558108583878634	-0.5634165294531899	0.0	1.007117383575715	-0.6543620301065762	0.0	0.975095277420479	-0.7490164778006411	0.0	1.010446594494797	-0.7722482307628878	0.0	1.0062404515883858	-0.7691851460673717	0.0	0.9593570293262038	-0.7646615286973681	0.0	1.0103266048683504	-0.4343896554463992	0.0	1.0496677447154883	-0.37407467412846646	0.0	1.0532285145511353	-0.4077357754821257	0.0	1.0085246982235896	-0.4418595935243979	0.0	0.955031509938735	-0.47106948992217873	0.0	0.9114420335473804	-0.5045716629715904	0.0	0.9999019699577038	-0.4416973673941847	0.0	0.9510671656877184	-0.4691344171182095	0.0	0.9217873930905877	-0.5030211959956004	0.0
29	0.972823779193206	0.9555329785850025	-0.5769978862950421	0.0	0.9529159329415733	-0.5756309329317874	0.0	1.0168842457655607	-0.6604712337173096	0.0	0.9724786795725101	-0.7599072695440116	0.0	1.0123779467908902	-0.7813767493820533	0.0	1.0013148550594482	-0.7840736183313092	0.0	0.9616992424621261	-0.7736995411986392	0.0	0.9537822558107018	-0.5747550986822076	0.0	1.0132044659293216	-0.6593109780411688	0.0	0.9753513110741269	-0.7528383799675467	0.0	1.0130100035769434	-0.7761344015720031	0.0	1.007867849205567	-0.772883351049291	0.0	0.9596730797631796	-0.767836658898331	0.0	1.0090727211121593	-0.4461247471544963	0.0	1.045182847835992	-0.3860901003191371	0.0	1.0505201497823082	-0.4189813180118062	0.0	1.00701407800857	-0.4557516996313714	0.0	0.959847575590454	-0.4943155248933003	0.0	0.9279368805893617	-0.5384528635543233	0.0	0.9985044256777696	-0.4544831688254318	0.0	0.9530906895281828	-0.4919192319801958	0.0	0.9369922627353205	-0.5342922543045553	0.0
